# xmcd
#
# Track frame offsets:
#	150
#	16542
#	28462
#	43250
#	56337
#	70720
#	87865
#	103152
#	119137
#	134047
#	151340
#	166375
#
# Disc length: 2393 seconds
#
# Revision: 1
# Processed by: cddbd v1.4PL0 Copyright (c) Steve Scherf et al.
# Submitted via: CDmax 1.8
#
DISCID=a509570c
DTITLE=Varius Soul music - The art of the soul balladS
DYEAR=1900
DGENRE=Blues
TTITLE0=Sittin in the park
TTITLE1=Hello stranger
TTITLE2=Hey there lonely girl
TTITLE3=Let me down easy
TTITLE4=Misty blue
TTITLE5=Rainy night in georgia
TTITLE6=Every little bit hurts
TTITLE7=if loving you is wrong
TTITLE8=Giving up
TTITLE9=Reconsider me
TTITLE10=Anyday now
TTITLE11=Stand by me
EXTD=
EXTT0=
EXTT1=
EXTT2=
EXTT3=
EXTT4=
EXTT5=
EXTT6=
EXTT7=
EXTT8=
EXTT9=
EXTT10=
EXTT11=
PLAYORDER=
